<svg width="55" height="55" viewBox="0 0 55 55" fill="none" xmlns="http://www.w3.org/2000/svg">
<g opacity="0.5">
<path d="M43.2985 39.8612L31.147 52.0162C30.6681 52.4954 30.0996 52.8755 29.4738 53.1348C28.848 53.3942 28.1772 53.5276 27.4998 53.5276C26.8224 53.5276 26.1516 53.3942 25.5258 53.1348C24.9 52.8755 24.3314 52.4954 23.8526 52.0162L11.701 39.8612C9.62609 37.7865 7.9801 35.3234 6.85706 32.6126C5.73402 29.9017 5.15592 26.9963 5.15576 24.062C5.1556 21.1277 5.73339 18.2222 6.85613 15.5112C7.97888 12.8003 9.62459 10.337 11.6993 8.26203C13.774 6.18708 16.2371 4.5411 18.948 3.41806C21.6588 2.29502 24.5643 1.71692 27.4986 1.71676C30.4328 1.7166 33.3384 2.29439 36.0493 3.41713C38.7603 4.53988 41.2236 6.18559 43.2985 8.26031C45.3737 10.3352 47.0198 12.7984 48.1428 15.5095C49.2659 18.2206 49.8439 21.1263 49.8439 24.0608C49.8439 26.9953 49.2659 29.901 48.1428 32.6121C47.0198 35.3231 45.3737 37.7864 43.2985 39.8612ZM39.6548 11.9075C36.4311 8.68379 32.0588 6.8693 27.4998 6.8693C22.9408 6.8693 18.5685 8.68036 15.3448 11.9041C12.1211 15.1278 10.31 19.5001 10.31 24.0591C10.31 28.6181 12.1211 32.9904 15.3448 36.2141L27.4998 48.3656L39.6548 36.2175C41.2513 34.6214 42.5177 32.7265 43.3817 30.6409C44.2458 28.5553 44.6905 26.32 44.6905 24.0625C44.6905 21.805 44.2458 19.5697 43.3817 17.4841C42.5177 15.3985 41.2513 13.5036 39.6548 11.9075ZM27.4998 30.9375C26.5842 30.9582 25.6738 30.7958 24.8219 30.4598C23.97 30.1238 23.1938 29.621 22.5389 28.9809C21.884 28.3408 21.3635 27.5763 21.0082 26.7323C20.6528 25.8883 20.4696 24.9818 20.4694 24.066C20.4691 23.1502 20.6519 22.2436 21.0068 21.3994C21.3618 20.5552 21.8818 19.7905 22.5364 19.1501C23.191 18.5096 23.967 18.0064 24.8187 17.67C25.6704 17.3336 26.5808 17.1707 27.4963 17.1909C29.2927 17.2307 31.002 17.972 32.2586 19.2563C33.5151 20.5406 34.2189 22.2658 34.2194 24.0625C34.2198 25.8593 33.5168 27.5848 32.261 28.8697C31.0051 30.1547 29.2961 30.8969 27.4998 30.9375Z" fill="white"/>
</g>
</svg>
