<svg width="47" height="60" viewBox="0 0 47 60" fill="none" xmlns="http://www.w3.org/2000/svg">
<path d="M1.625 21.5927C1.625 16.2653 3.92968 11.1562 8.03204 7.38915C12.1344 3.62214 17.6984 1.50586 23.5 1.50586C29.3016 1.50586 34.8656 3.62214 38.968 7.38915C43.0703 11.1562 45.375 16.2653 45.375 21.5927V38.8099C45.375 41.4478 44.8092 44.0598 43.7099 46.4968C42.6105 48.9339 40.9992 51.1482 38.968 53.0134C36.9367 54.8787 34.5252 56.3583 31.8712 57.3677C29.2172 58.3772 26.3727 58.8967 23.5 58.8967C20.6273 58.8967 17.7828 58.3772 15.1288 57.3677C12.4748 56.3583 10.0633 54.8787 8.03204 53.0134C6.00076 51.1482 4.38946 48.9339 3.29013 46.4968C2.19081 44.0598 1.625 41.4478 1.625 38.8099V21.5927Z" stroke="white" stroke-width="2"/>
<path d="M23.5 10.1143V18.7229" stroke="white" stroke-width="2" stroke-linecap="round"/>
</svg>
