<?xml version="1.0" standalone="no"?>
<!DOCTYPE svg PUBLIC "-//W3C//DTD SVG 20010904//EN"
 "http://www.w3.org/TR/2001/REC-SVG-20010904/DTD/svg10.dtd">
<svg version="1.0" xmlns="http://www.w3.org/2000/svg"
 width="1792.000000pt" height="1792.000000pt" viewBox="0 0 1792.000000 1792.000000"
 preserveAspectRatio="xMidYMid meet">
<metadata>
Created by potrace 1.14, written by Peter Selinger 2001-2017
</metadata>
<g transform="translate(0.000000,1792.000000) scale(0.100000,-0.100000)"
fill="#000000" stroke="none">
<path d="M9656 11504 c-105 -38 -191 -140 -250 -296 -49 -132 -75 -253 -92
-438 -6 -67 -6 -364 0 -435 8 -90 19 -201 21 -215 1 -8 6 -40 10 -70 9 -77 15
-112 19 -119 2 -3 7 -31 11 -61 3 -30 11 -73 16 -95 6 -22 17 -69 25 -105 8
-36 16 -69 18 -75 43 -159 97 -326 151 -466 77 -197 124 -299 210 -454 157
-280 340 -491 565 -647 205 -143 386 -198 632 -193 157 3 182 7 278 36 218 66
355 251 310 418 -8 32 -9 46 0 55 8 8 76 10 228 7 470 -8 664 -4 712 13 63 23
90 43 90 66 0 24 65 22 -580 24 -512 1 -567 3 -594 25 -16 13 -103 41 -151 48
-88 14 -168 5 -227 -24 -75 -37 -77 -91 -3 -124 51 -22 103 -29 272 -33 94 -2
127 -6 147 -19 14 -10 27 -21 27 -25 21 -119 8 -208 -40 -261 -63 -70 -207
-113 -381 -112 -107 1 -126 2 -215 20 -170 33 -391 156 -554 308 l-72 68 34
35 c55 57 131 159 185 250 46 77 73 131 130 260 18 42 80 235 98 305 4 17 8
35 10 40 6 25 15 73 19 104 3 18 7 36 9 40 3 4 8 34 11 66 4 33 9 62 10 65 18
31 27 544 12 670 -49 404 -148 703 -316 954 -58 88 -200 233 -277 284 -50 33
-170 85 -231 101 -84 22 -224 24 -277 5z m237 -110 c56 -14 162 -64 195 -90
142 -114 266 -282 353 -479 44 -100 116 -321 133 -405 2 -14 10 -50 16 -80 15
-75 18 -98 35 -222 27 -191 27 -631 0 -798 -41 -258 -84 -413 -156 -567 -22
-46 -39 -85 -39 -88 0 -8 -88 -142 -114 -173 -59 -72 -116 -126 -123 -116 -10
14 -126 158 -133 164 -16 15 -90 130 -90 138 0 6 -4 12 -8 14 -28 11 -195 347
-278 561 -79 200 -176 530 -198 672 -4 20 -8 40 -11 44 -2 4 -7 30 -11 57 -3
27 -8 58 -11 69 -2 11 -6 34 -8 50 -2 17 -6 41 -8 55 -27 134 -40 500 -24 655
13 123 16 139 36 220 40 154 123 279 212 319 41 18 163 18 232 0z"/>
<path d="M4198 11455 c-2 -2 -59 -6 -128 -10 -69 -3 -143 -8 -165 -10 -22 -1
-80 -6 -130 -10 -49 -3 -103 -8 -120 -10 -16 -3 -57 -7 -90 -11 -107 -10 -184
-19 -245 -29 -14 -2 -47 -6 -75 -10 -56 -7 -92 -12 -180 -25 -33 -5 -78 -12
-100 -15 -22 -3 -51 -7 -65 -10 -14 -3 -41 -8 -60 -11 -19 -2 -59 -9 -88 -15
-29 -6 -67 -12 -85 -15 -17 -2 -54 -8 -82 -14 -61 -12 -99 -19 -145 -26 -19
-3 -42 -8 -50 -11 -8 -3 -24 -7 -35 -9 -11 -1 -63 -12 -115 -24 -52 -12 -106
-23 -120 -26 -14 -3 -88 -21 -165 -40 -77 -20 -147 -37 -155 -39 -8 -2 -27 -8
-42 -14 -16 -6 -28 -8 -28 -5 0 4 -7 1 -15 -6 -8 -7 -15 -9 -15 -6 0 4 -8 2
-18 -3 -11 -6 -30 -12 -43 -15 -34 -6 -228 -69 -329 -106 -47 -17 -89 -33 -95
-34 -5 -2 -23 -8 -40 -15 -16 -6 -43 -17 -60 -23 -114 -43 -431 -190 -445
-207 -3 -3 -21 -14 -40 -24 -62 -33 -95 -52 -100 -58 -3 -3 -23 -16 -45 -29
-22 -13 -45 -29 -51 -35 -6 -5 -22 -17 -34 -25 -111 -75 -272 -247 -333 -357
-43 -78 -79 -224 -58 -237 19 -12 49 13 56 46 31 145 141 297 310 430 82 65
172 128 182 128 3 0 14 6 22 14 23 20 307 162 341 171 3 0 14 5 25 11 11 6 58
25 105 43 47 18 94 37 105 41 50 21 447 145 530 165 11 3 63 16 115 30 52 14
104 27 115 30 115 29 546 122 610 130 11 2 34 6 50 9 17 4 46 9 65 12 54 8 83
13 110 19 14 3 43 7 65 10 22 2 51 7 64 9 12 3 44 8 70 11 25 3 60 7 76 10 73
12 94 15 165 24 41 6 100 13 130 16 30 4 66 8 80 10 54 8 128 16 275 30 33 3
80 8 105 10 85 9 145 15 235 21 124 10 750 10 860 1 50 -4 113 -10 140 -12 66
-5 202 -22 242 -29 12 -3 43 -8 70 -12 50 -8 58 -10 71 -14 4 -1 10 -2 13 -2
4 1 47 -10 95 -24 49 -14 103 -29 119 -33 17 -5 64 -22 106 -40 203 -85 311
-200 313 -336 2 -135 -44 -228 -183 -365 -177 -175 -429 -331 -757 -469 -98
-41 -324 -122 -384 -137 -201 -51 -292 -73 -325 -78 -22 -3 -51 -8 -65 -11
-14 -3 -50 -8 -81 -11 -65 -7 -58 -17 -79 116 -5 36 -12 74 -14 85 -2 11 -9
54 -15 95 -7 41 -16 95 -21 120 -4 25 -13 70 -19 100 -6 30 -13 69 -16 85 -7
34 -12 58 -21 95 -3 14 -8 37 -11 53 -3 15 -8 27 -12 28 -41 6 -64 3 -80 -12
-19 -18 -19 -19 5 -106 14 -48 27 -100 29 -116 2 -15 6 -31 9 -35 2 -4 7 -27
11 -52 4 -25 8 -48 11 -51 2 -4 6 -22 8 -40 3 -19 10 -59 16 -89 6 -30 14 -68
16 -85 3 -16 9 -52 14 -80 5 -27 12 -69 15 -92 l6 -43 -38 -1 c-21 -1 -69 -3
-108 -4 -286 -11 -497 -17 -662 -20 -163 -2 -198 -6 -230 -21 -39 -20 -55 -56
-34 -77 7 -7 130 -12 368 -13 197 -2 381 -5 408 -8 28 -2 75 -6 105 -9 30 -3
89 -9 130 -12 41 -4 78 -10 82 -14 3 -3 10 -31 13 -61 4 -30 9 -66 12 -80 2
-14 5 -47 8 -75 2 -27 5 -50 5 -50 3 0 8 -34 14 -100 4 -38 9 -77 11 -85 2 -8
6 -44 10 -80 3 -36 7 -76 9 -90 3 -14 7 -52 10 -85 4 -33 8 -76 11 -95 5 -42
15 -137 20 -200 2 -25 7 -70 10 -100 4 -30 8 -68 10 -85 2 -27 7 -69 21 -180
5 -46 22 -174 30 -225 3 -19 7 -51 10 -70 7 -58 22 -101 40 -121 19 -21 49
-25 60 -8 7 12 7 71 0 104 -2 12 -7 52 -11 90 -4 39 -9 86 -11 105 -2 19 -5
53 -8 75 -2 22 -7 63 -10 90 -3 28 -9 75 -12 105 -6 58 -8 72 -18 158 -3 28
-9 76 -12 105 -3 28 -8 66 -10 82 -3 17 -7 53 -10 80 -3 28 -11 97 -19 155 -9
58 -17 119 -19 135 -2 17 -7 53 -11 80 -3 28 -8 64 -10 80 -2 17 -7 46 -10 65
-3 19 -7 53 -9 75 -2 22 -9 73 -15 113 -12 76 -9 94 12 87 7 -2 35 -6 62 -9
28 -3 61 -8 74 -11 13 -2 47 -7 75 -10 50 -5 91 -12 91 -15 0 -1 11 -3 25 -4
32 -4 101 -16 120 -21 8 -2 38 -7 65 -11 28 -3 53 -8 56 -10 3 -2 19 -6 35 -8
16 -3 40 -8 54 -11 14 -3 36 -8 50 -11 14 -3 30 -7 35 -8 35 -9 199 -48 215
-51 8 -2 40 -10 71 -19 31 -9 65 -18 75 -21 77 -16 458 -149 559 -195 317
-143 507 -263 659 -416 238 -240 229 -523 -26 -784 l-63 -65 -135 1 c-156 2
-531 13 -605 19 -321 23 -416 35 -541 69 -43 11 -58 11 -90 0 -52 -18 -88 -58
-74 -84 10 -18 70 -57 70 -46 0 3 14 1 32 -4 83 -24 249 -35 691 -45 120 -2
222 -7 227 -10 5 -3 11 -1 15 5 4 6 11 7 17 4 6 -4 383 -8 837 -9 866 -2 905
0 936 41 8 10 15 31 15 46 0 32 -31 45 -110 42 -30 -1 -118 -5 -195 -8 -267
-10 -922 -22 -982 -17 -7 1 -3 11 10 24 49 50 109 123 119 145 6 12 15 22 20
22 4 0 8 5 8 11 0 6 8 23 19 37 10 15 30 56 44 92 59 150 53 281 -20 430 -60
124 -244 295 -445 415 -237 141 -517 258 -898 376 -58 18 -107 32 -110 32 -3
0 -16 4 -30 9 -14 5 -32 11 -40 13 -8 2 -42 11 -75 20 -33 9 -71 18 -83 21
-13 3 -49 11 -80 20 -56 14 -267 62 -307 69 -11 2 -47 9 -80 15 -33 6 -77 13
-99 16 -21 2 -42 6 -46 9 -5 3 -35 8 -67 11 -32 3 -60 8 -61 9 -2 2 13 8 35
14 21 6 74 20 118 32 198 53 634 199 730 244 17 7 64 28 105 46 78 33 311 148
320 158 3 3 19 13 35 21 17 8 36 21 43 28 7 6 17 12 22 12 11 0 127 79 152
103 10 9 22 17 27 17 20 0 201 188 240 249 118 185 112 347 -21 487 -49 52
-141 125 -144 114 -1 -3 -10 2 -20 11 -15 13 -103 58 -124 64 -3 1 -18 7 -35
14 -66 28 -266 87 -355 105 -14 3 -36 8 -50 11 -14 3 -43 8 -65 10 -22 3 -51
7 -65 10 -44 8 -102 15 -370 41 -54 6 -737 13 -742 9z"/>
<path d="M14940 8742 c-121 -14 -200 -101 -194 -215 5 -111 63 -186 157 -203
17 -2 33 -7 36 -9 12 -7 140 -17 253 -19 63 -2 120 -6 126 -10 26 -16 9 -37
-51 -66 -35 -17 -74 -44 -86 -60 -28 -39 -34 -106 -12 -143 29 -52 122 -93
234 -103 58 -5 265 -5 312 0 71 8 140 18 145 21 3 2 23 6 45 9 22 4 76 15 120
26 44 11 89 22 100 25 21 5 127 42 160 55 79 33 159 72 194 94 22 14 44 26 48
26 5 0 23 -23 42 -50 42 -62 139 -154 191 -180 108 -55 261 -72 329 -36 77 41
140 138 164 256 13 66 15 145 4 174 -9 24 -47 21 -47 -4 0 -24 1 -17 -16 -90
-21 -92 -75 -166 -138 -190 -16 -6 -56 -10 -88 -9 -152 6 -332 168 -419 379
-12 30 -29 63 -37 73 -25 29 -62 19 -68 -20 -4 -22 24 -149 45 -202 11 -30 20
-55 18 -56 -38 -26 -171 -85 -206 -91 -14 -3 -29 -8 -35 -12 -6 -3 -15 -7 -21
-8 -5 -1 -30 -7 -55 -14 -25 -7 -55 -14 -68 -16 -12 -2 -48 -8 -80 -13 -170
-29 -462 -32 -628 -5 -136 21 -209 70 -170 112 9 11 35 29 59 41 73 38 92 59
92 100 0 21 -7 44 -15 52 -43 41 -71 49 -177 55 -163 7 -235 13 -268 19 -73
15 -135 65 -135 109 0 11 9 36 20 53 28 47 89 59 175 36 28 -8 58 -16 69 -18
10 -2 26 -11 36 -20 24 -21 77 -30 95 -15 22 18 18 45 -12 81 -48 56 -153 91
-243 81z"/>
<path d="M8083 8619 c-126 -23 -219 -132 -227 -266 -11 -194 141 -380 350
-429 132 -30 256 6 350 101 l54 56 53 -39 c89 -66 198 -115 287 -128 77 -12
313 1 379 20 9 3 36 8 61 11 101 14 342 88 459 143 73 34 198 109 223 134 15
15 17 23 8 33 -9 11 -21 7 -68 -25 -46 -31 -196 -104 -230 -111 -4 -1 -11 -3
-17 -5 -30 -9 -124 -34 -150 -39 -431 -80 -686 -40 -913 142 -87 70 -124 61
-157 -37 -27 -81 -58 -132 -96 -158 -96 -67 -288 31 -432 222 -78 101 -100
201 -54 243 28 26 58 35 127 38 117 4 213 -38 303 -135 26 -27 52 -51 59 -51
7 -1 20 -2 28 -3 25 -2 49 24 44 50 -8 43 -21 68 -54 102 -92 96 -260 153
-387 131z"/>
<path d="M12870 8623 c-90 -14 -158 -57 -202 -128 -35 -57 -46 -104 -42 -176
7 -152 94 -280 242 -354 179 -90 352 -60 476 82 24 28 31 31 50 21 11 -6 23
-14 26 -18 3 -3 23 -17 45 -30 22 -13 42 -27 45 -30 8 -9 121 -57 155 -65 104
-26 298 -19 475 15 72 15 90 19 110 25 10 3 28 8 39 10 12 3 30 7 41 10 11 3
28 7 38 9 39 10 170 59 220 81 29 14 55 25 57 25 9 0 171 100 194 120 19 16
21 23 11 35 -10 12 -20 9 -70 -25 -32 -21 -97 -56 -146 -76 -108 -45 -133 -53
-212 -68 -13 -3 -31 -7 -40 -10 -9 -3 -33 -7 -52 -10 -19 -3 -46 -8 -60 -11
-87 -18 -304 -24 -400 -12 -130 18 -257 70 -369 152 -35 26 -79 53 -97 61 -29
12 -35 11 -58 -7 -14 -11 -24 -24 -22 -28 7 -11 -58 -155 -81 -181 -82 -87
-247 -30 -405 140 -135 145 -170 275 -87 324 33 19 153 26 219 12 52 -11 119
-53 176 -112 65 -66 85 -77 118 -64 26 10 30 18 26 55 -5 47 -63 119 -120 151
-19 10 -38 23 -41 27 -3 5 -10 9 -15 9 -5 0 -23 6 -40 13 -56 23 -148 36 -204
28z"/>
<path d="M16878 8616 c-21 -16 -38 -57 -33 -82 2 -11 4 -24 4 -31 2 -29 73
-75 132 -87 13 -2 44 -9 69 -15 47 -10 363 -8 435 4 157 26 263 45 283 49 12
3 32 8 43 11 82 18 129 52 98 71 -16 10 -79 11 -119 2 -78 -17 -144 -22 -325
-22 -251 0 -329 14 -454 80 -68 36 -105 42 -133 20z"/>
<path d="M15840 7462 c-54 -44 -4 -140 62 -121 59 17 75 72 33 114 -29 30 -64
32 -95 7z"/>
<path d="M13535 7144 c-6 -1 -27 -5 -48 -9 -45 -7 -105 -57 -123 -102 -18 -42
-18 -117 0 -151 21 -39 52 -65 131 -108 128 -69 162 -94 177 -132 30 -78 -24
-146 -110 -137 -79 8 -140 58 -171 141 -31 82 -41 68 -41 -60 0 -119 3 -126
40 -106 13 7 36 6 77 -5 70 -17 155 -14 205 7 43 19 93 69 106 107 23 64 -2
156 -55 203 -10 9 -67 41 -128 72 -131 67 -137 72 -154 112 -36 90 72 157 175
108 35 -17 77 -76 89 -126 4 -15 13 -29 21 -32 12 -5 14 13 13 104 -1 83 -4
110 -15 114 -8 3 -14 -1 -14 -10 0 -17 -27 -16 -125 4 -22 5 -45 7 -50 6z"/>
<path d="M14116 7134 c-95 -24 -180 -110 -208 -207 -17 -60 -17 -182 -1 -248
18 -70 73 -144 135 -182 37 -23 61 -30 115 -33 94 -5 156 24 210 97 51 69 77
137 61 156 -9 12 -15 7 -29 -25 -33 -72 -122 -128 -182 -116 -12 2 -33 6 -47
9 -30 5 -101 56 -115 81 -5 11 -13 21 -16 24 -13 11 -40 98 -43 140 -4 43 -2
46 23 48 66 7 191 6 191 -1 0 -5 4 -6 10 -2 11 7 117 11 124 4 2 -2 24 -3 49
-1 49 4 51 9 36 81 -28 132 -171 212 -313 175z m110 -69 c33 -22 52 -53 59
-101 l6 -41 -148 1 -148 1 4 25 c5 36 30 82 58 105 54 44 112 48 169 10z"/>
<path d="M14667 7135 c-15 -8 -29 -13 -30 -12 -1 1 -35 -12 -74 -28 -80 -33
-96 -55 -35 -48 65 7 66 2 67 -263 0 -221 -1 -235 -20 -253 -11 -11 -33 -22
-49 -24 -39 -5 -46 -27 -9 -28 160 -3 298 2 306 10 11 11 -1 18 -43 23 -14 2
-33 16 -46 35 -20 29 -21 43 -20 221 l1 189 37 46 c21 25 44 44 51 43 7 -1 29
-12 48 -24 59 -36 104 -22 114 34 11 61 -67 107 -130 76 -32 -16 -80 -62 -106
-102 -16 -24 -17 -24 -15 38 2 73 -8 87 -47 67z"/>
<path d="M15885 7131 c-105 -38 -162 -66 -157 -79 3 -9 14 -11 38 -6 55 10 62
-21 62 -266 0 -258 -7 -281 -86 -271 -8 1 -12 -5 -10 -14 3 -15 20 -17 152
-17 90 1 153 5 159 11 6 6 8 12 4 12 -4 1 -11 3 -17 4 -5 1 -19 3 -30 4 -11 0
-27 13 -37 27 -15 23 -17 60 -17 314 -1 159 -3 291 -6 293 -3 3 -28 -3 -55
-12z"/>
<path d="M16375 7135 c-66 -15 -102 -35 -149 -82 -38 -37 -77 -107 -90 -157
-8 -32 -9 -152 -1 -183 3 -13 7 -31 9 -42 7 -29 42 -94 64 -116 60 -62 100
-84 166 -91 95 -11 181 33 244 123 19 27 52 112 52 136 0 18 -21 4 -36 -25
-45 -87 -124 -135 -207 -124 -53 7 -89 31 -124 85 -43 64 -57 113 -57 206 0
86 17 136 62 187 37 41 116 55 161 27 23 -14 32 -29 41 -73 12 -60 29 -76 75
-76 45 0 65 17 65 55 0 67 -75 140 -154 152 -17 2 -40 6 -51 7 -11 2 -42 -2
-70 -9z"/>
<path d="M17011 7139 c-83 -16 -158 -75 -200 -158 -39 -77 -48 -210 -21 -312
16 -61 74 -136 134 -173 43 -27 58 -31 125 -31 65 0 83 4 121 27 46 27 90 70
90 88 0 6 3 10 8 10 9 0 39 68 42 95 6 55 -9 55 -35 2 -61 -125 -199 -148
-312 -52 -18 15 -33 34 -33 41 0 8 -4 14 -8 14 -22 0 -61 173 -41 185 8 6 143
10 159 5 15 -4 130 -4 130 0 0 3 33 5 72 5 l73 0 -3 44 c-9 141 -149 238 -301
210z m86 -67 c35 -17 61 -61 70 -116 l5 -34 -148 2 c-167 1 -165 0 -131 71 23
47 62 83 97 91 14 3 30 7 35 8 13 4 33 -2 72 -22z"/>
<path d="M17585 7142 c-89 -15 -155 -96 -155 -189 0 -84 40 -125 196 -207 73
-38 133 -88 135 -112 1 -8 2 -20 2 -26 2 -27 -22 -77 -43 -88 -51 -28 -123
-19 -174 21 -35 27 -71 85 -81 127 -4 18 -13 32 -21 32 -12 0 -14 -21 -13
-115 1 -89 4 -115 14 -115 8 0 17 5 20 10 6 10 17 9 94 -8 94 -22 203 0 254
51 55 55 71 140 39 204 -28 54 -49 71 -180 138 -84 44 -123 70 -139 94 -47 69
0 141 92 141 76 0 127 -44 158 -136 26 -74 37 -53 37 70 0 64 -2 116 -4 116
-3 0 -12 -8 -21 -17 -15 -15 -24 -15 -79 -4 -69 15 -102 18 -131 13z"/>
<path d="M14973 7117 c-3 -5 0 -14 6 -20 6 -6 11 -8 11 -3 0 14 58 -27 73 -53
8 -14 58 -129 112 -256 131 -312 137 -325 152 -325 14 0 20 12 83 165 18 44
38 94 45 110 7 17 25 59 39 95 15 36 31 74 36 85 5 11 22 50 38 86 28 63 65
104 84 93 4 -3 8 0 8 5 0 6 0 14 0 18 0 4 -45 8 -100 8 -72 0 -101 -3 -104
-12 -3 -7 1 -13 9 -13 8 0 25 -5 39 -12 34 -15 32 -26 -57 -244 -41 -99 -76
-187 -79 -195 -4 -9 -10 -4 -17 16 -7 16 -18 43 -26 60 -53 115 -125 300 -125
320 0 30 28 58 51 52 10 -3 20 1 23 9 3 8 2 15 -2 15 -36 6 -295 2 -299 -4z"/>
</g>
</svg>
