<svg width="55" height="55" viewBox="0 0 55 55" fill="none" xmlns="http://www.w3.org/2000/svg">
<path d="M44.6873 49.8438H44.3951C10.6216 47.9016 5.82633 19.4047 5.15602 10.7078C5.10201 10.0316 5.18195 9.35142 5.39127 8.70618C5.60059 8.06093 5.93517 7.46333 6.37585 6.94762C6.81652 6.43191 7.35462 6.00821 7.95932 5.70082C8.56402 5.39342 9.22343 5.20837 9.89977 5.15625H19.3701C20.0585 5.15559 20.7313 5.36166 21.3013 5.74778C21.8713 6.1339 22.3122 6.68228 22.567 7.32188L25.1795 13.75C25.431 14.3748 25.4934 15.0598 25.359 15.7198C25.2245 16.3799 24.8991 16.9858 24.4232 17.4625L20.7623 21.1578C21.3341 24.4075 22.8904 27.4032 25.2205 29.7395C27.5507 32.0757 30.5422 33.6399 33.7904 34.2203L37.5201 30.525C38.0039 30.0543 38.6156 29.7365 39.2788 29.6112C39.9421 29.4859 40.6276 29.5586 41.2498 29.8203L47.7295 32.4156C48.3594 32.6784 48.8969 33.1228 49.2734 33.6921C49.6499 34.2614 49.8483 34.93 49.8435 35.6125V44.6875C49.8435 46.055 49.3003 47.3665 48.3333 48.3335C47.3663 49.3005 46.0548 49.8438 44.6873 49.8438ZM10.3123 8.59375C9.85643 8.59375 9.41926 8.77483 9.09693 9.09716C8.7746 9.41949 8.59352 9.85666 8.59352 10.3125V10.45C9.38414 20.625 14.4545 44.6875 44.5841 46.4062C44.8099 46.4202 45.0363 46.3894 45.2502 46.3157C45.4641 46.242 45.6613 46.1268 45.8305 45.9767C45.9998 45.8266 46.1378 45.6446 46.2365 45.441C46.3353 45.2375 46.3929 45.0165 46.406 44.7906V35.6125L39.9263 33.0172L34.9935 37.9156L34.1685 37.8125C19.2154 35.9391 17.1873 20.9859 17.1873 20.8313L17.0841 20.0063L21.9654 15.0734L19.3873 8.59375H10.3123Z" fill="white"/>
</svg>
