<svg width="224" height="64" viewBox="0 0 224 64" fill="none" xmlns="http://www.w3.org/2000/svg">
<g clip-path="url(#clip0_4_40)">
<path d="M98.4 45.973C98.4063 46.1719 98.3449 46.367 98.2259 46.5263C98.1069 46.6855 97.9374 46.7994 97.7452 46.8493C97.2231 47.0174 96.6765 47.0963 96.1283 47.0827C89.0352 47.0827 83.3159 47.0635 78.9705 47.0252C74.625 46.9868 71.2574 46.9192 68.8675 46.8222C66.4776 46.7252 64.8743 46.5786 64.0574 46.3824C63.2405 46.1862 62.8321 45.9324 62.8321 45.6212C62.8403 45.4572 62.8952 45.299 62.9903 45.1653C63.0854 45.0316 63.2167 44.928 63.3688 44.8668C63.697 44.6788 64.0676 44.5775 64.4456 44.5724C65.3419 44.8547 66.2631 45.0507 67.1966 45.1577C68.3511 45.3133 69.6653 45.4408 71.1392 45.54C72.6143 45.6347 74.1772 45.7058 75.865 45.743C77.5527 45.7802 79.2405 45.8039 80.9451 45.8039C83.137 43.8101 84.2329 41.8378 84.2329 39.8868C84.2329 38.0532 83.3328 36.3165 81.5325 34.6768C79.7322 33.0372 77.3603 31.5633 74.4169 30.2551C71.1533 28.8409 67.7728 27.7145 64.3139 26.8889C60.4961 25.9459 56.6238 25.2409 52.719 24.7779C53.0768 27.3558 53.4256 29.9427 53.7654 32.5387C54.1052 35.1347 54.3932 37.4871 54.6295 39.5959C54.9086 42.0543 55.1685 44.4552 55.4093 46.7985C55.4093 47.0726 55.308 47.2282 55.1089 47.2654C54.6295 47.2654 54.3325 46.9271 54.211 46.2132C54.0535 45.3539 53.8745 44.1337 53.6743 42.5527C53.474 40.9717 53.2748 39.2147 53.0768 37.2818C52.8788 35.3512 52.6537 33.292 52.4017 31.1043C52.1496 28.9165 51.8807 26.7739 51.5949 24.6764C48.5222 24.3223 45.4322 24.1393 42.3392 24.1283C41.6641 24.1283 40.989 24.1283 40.3679 24.1588C39.7468 24.1892 39.1291 24.2061 38.5722 24.2467C38.0152 24.2873 37.735 24.0911 37.735 23.7765C37.735 23.154 38.3325 22.8394 39.5308 22.8394C40.0473 22.8394 40.7257 22.8393 41.5561 22.8123L44.1857 22.7514C45.0993 22.7333 45.9758 22.704 46.8152 22.6634C47.6546 22.6228 48.3128 22.6037 48.7899 22.6059C49.6301 22.6063 50.4693 22.5475 51.3013 22.43C50.9817 20.5557 50.6622 18.8191 50.3426 17.22C50.0746 15.818 49.7367 14.4303 49.33 13.0622C49.3148 12.9533 49.336 12.8424 49.3904 12.747C49.4448 12.6515 49.5291 12.5767 49.6304 12.5344C49.8204 12.4578 50.0231 12.4177 50.2278 12.416C50.427 12.416 50.5451 12.4938 50.5857 12.6494C50.8624 13.705 51.1516 15.0819 51.4532 16.7802C51.7547 18.4785 52.063 20.3223 52.3781 22.3116C55.2685 21.9585 58.114 21.302 60.8675 20.3528C63.4526 19.4851 65.9512 18.3774 68.3308 17.0441C70.2763 15.9808 72.058 14.6407 73.6203 13.0655C74.957 11.6582 75.6253 10.2914 75.6253 8.96522C75.5983 8.00464 75.2015 7.09178 74.5181 6.41774C73.7778 5.61707 72.5817 4.91451 70.93 4.31006C68.8358 3.6028 66.6721 3.12193 64.4759 2.87563C61.2523 2.49112 58.0074 2.31484 54.7612 2.34786C53.5257 2.34786 51.8515 2.42568 49.7384 2.5813C47.6253 2.73692 45.2444 2.97148 42.5958 3.28498C39.9426 3.59623 37.1128 3.99657 34.1063 4.48599C31.0999 4.97541 28.1058 5.56971 25.1241 6.26889C22.1671 6.96581 19.2923 7.76535 16.4996 8.66751C13.9218 9.48164 11.4126 10.4998 8.99578 11.7123C6.99755 12.6989 5.14673 13.9606 3.49705 15.4608C2.04107 16.8276 1.13418 18.3308 0.776372 19.9705C0.763102 20.1023 0.69889 20.2238 0.597467 20.3088C0.50558 20.4118 0.377226 20.475 0.239662 20.4847C0.0810124 20.4847 0 20.3494 0 20.0753C0.274397 18.3615 1.05512 16.7694 2.24135 15.5048C3.66492 13.9647 5.30735 12.6435 7.11561 11.5837C9.30616 10.2802 11.6043 9.16762 13.9848 8.25815C16.6857 7.20753 19.4394 6.29849 22.2346 5.53475C25.1443 4.73633 28.144 4.04393 31.2338 3.45752C34.3235 2.87112 37.3502 2.37267 40.3139 1.96219C43.2799 1.55396 46.1187 1.25174 48.8304 1.05552C51.5421 0.859295 53.9736 0.761186 56.1249 0.761186C59.404 0.731233 62.6811 0.937005 65.9308 1.37691C68.307 1.68258 70.6423 2.24986 72.8945 3.06847C74.7488 3.79245 76.1339 4.63259 77.0498 5.58888C77.4739 5.9942 77.8137 6.47975 78.0495 7.01746C78.2853 7.55517 78.4125 8.13439 78.4236 8.72164C78.4236 9.89219 77.9162 11.1214 76.9013 12.4092C75.8864 13.6971 74.3617 14.986 72.3274 16.2761C69.9252 17.7467 67.393 18.9925 64.7629 19.9975C61.3388 21.3206 57.8348 22.4257 54.2717 23.3062C55.0278 23.3852 56.3128 23.5893 58.1266 23.9186C59.9404 24.2478 62.0129 24.717 64.3443 25.3259C66.6757 25.9326 69.0869 26.6747 71.5781 27.552C73.9411 28.3728 76.231 29.3913 78.4236 30.5968C80.3171 31.6107 82.0413 32.9142 83.5342 34.4603C84.8709 35.888 85.5392 37.46 85.5392 39.1764C85.517 40.2779 85.2409 41.3594 84.7325 42.3362C84.0426 43.629 83.1425 44.7975 82.0692 45.7937C84.0945 45.7937 86.0377 45.7734 87.8987 45.7328C89.7598 45.6922 91.4037 45.6539 92.8304 45.6178C94.5046 45.5772 96.0799 45.5186 97.5561 45.4419C98.1232 45.4453 98.4 45.6212 98.4 45.973Z" fill="white"/>
<path d="M126.201 40.9931C125.35 41.6923 124.415 42.2832 123.419 42.7523C122.331 43.2716 121.202 43.7015 120.044 44.0379C118.856 44.3903 117.648 44.6671 116.425 44.8668C115.269 45.0552 114.1 45.1525 112.928 45.1577C112.207 45.1576 111.491 45.0434 110.805 44.8194C110.205 44.6314 109.632 44.3653 109.1 44.0278C108.561 43.6889 108.042 43.3172 107.548 42.9147C107.121 43.618 106.518 44.1975 105.799 44.5961C105.161 44.9235 104.454 45.094 103.737 45.0934C103.042 45.0872 102.354 44.9483 101.711 44.6841C101.053 44.422 100.446 44.0452 99.919 43.571C99.3983 43.1002 98.9721 42.5342 98.6633 41.9032C98.3447 41.2563 98.1806 40.544 98.1839 39.8226C98.171 38.8825 98.5135 37.9724 99.1426 37.2751C99.7772 36.5545 100.736 36.1925 102.012 36.1925C103.208 36.2741 104.358 36.6901 105.33 37.3935C106.147 38.0363 106.555 38.6723 106.555 39.2948C106.555 39.6466 106.356 39.8226 105.958 39.8226C105.813 39.8195 105.67 39.7839 105.54 39.7183C105.411 39.6528 105.297 39.5589 105.208 39.4436C104.989 39.1899 104.732 38.9159 104.432 38.6215C104.077 38.2906 103.674 38.0147 103.237 37.8028C102.608 37.5219 101.923 37.3911 101.235 37.4205C100.476 37.4205 99.9493 37.539 99.6489 37.7589C99.5051 37.868 99.3894 38.01 99.3113 38.173C99.2332 38.3359 99.1951 38.5153 99.2 38.696C99.2388 39.2845 99.4359 39.8515 99.7705 40.3368C100.161 40.9801 100.633 41.5702 101.175 42.0926C101.706 42.6195 102.297 43.0817 102.937 43.4695C103.425 43.7985 103.993 43.9901 104.581 44.0244C104.83 44.0465 105.081 44.0121 105.316 43.9237C105.55 43.8353 105.761 43.6951 105.934 43.5135C106.214 43.1675 106.441 42.7822 106.609 42.37C106.768 41.9607 106.896 41.5784 106.997 41.2299C107.099 40.8815 107.284 40.7022 107.565 40.7022C107.943 40.7272 108.3 40.8825 108.577 41.142C109.027 41.4983 109.496 41.8303 109.981 42.1366C110.674 42.5592 111.417 42.8933 112.192 43.1312C113.309 43.4549 114.47 43.6033 115.632 43.571C116.412 43.5653 117.19 43.5168 117.965 43.4256C118.873 43.3235 119.775 43.1665 120.665 42.9553C121.595 42.7381 122.505 42.4439 123.386 42.0757C124.274 41.713 125.109 41.2304 125.867 40.6413L126.201 40.9931Z" fill="white"/>
<path d="M157.644 38.5945C157.644 38.8651 157.374 39.1121 156.837 39.3252C156.316 39.5417 155.758 39.6566 155.193 39.6636H152.719C151.704 39.6636 150.678 39.6534 149.641 39.6331C148.603 39.6128 147.676 39.5936 146.859 39.5756C146.042 39.5553 145.536 39.5485 145.337 39.5485C145.131 39.5408 144.927 39.5802 144.739 39.6636C144.704 39.6772 144.673 39.7013 144.651 39.7327C144.63 39.7641 144.618 39.8013 144.618 39.8395C144.778 40.2725 144.859 40.7309 144.857 41.1927C144.857 42.5212 144.2 43.6737 142.886 44.6503C141.572 45.6268 139.639 46.114 137.087 46.1118C134.923 46.1293 132.791 45.585 130.9 44.5319C128.937 43.4209 127.183 41.9762 125.715 40.2624C124.106 38.3955 122.745 36.3282 121.664 34.1119C120.502 31.7715 119.524 29.3442 118.738 26.8517C117.943 24.3542 117.342 21.7992 116.938 19.2093C116.554 16.8081 116.355 14.3809 116.341 11.9491C116.332 10.3633 116.452 8.7793 116.699 7.21279C116.898 5.91631 117.249 4.64791 117.745 3.43386C118.126 2.47433 118.72 1.6138 119.48 0.916825C120.166 0.315523 121.05 -0.00883517 121.961 0.00676799C123.905 -0.0170715 125.803 0.601151 127.362 1.76599C128.998 3.00922 130.353 4.58529 131.338 6.39069C132.469 8.45707 133.295 10.677 133.789 12.981C134.352 15.5086 134.633 18.0911 134.626 20.6809C134.623 22.4933 134.484 24.3028 134.208 26.0939C133.938 27.8701 133.529 29.6223 132.986 31.3343C132.463 32.9741 131.77 34.5547 130.92 36.0504C130.117 37.4698 129.133 38.7787 127.993 39.9444C129.389 41.4074 131.014 42.6324 132.803 43.571C134.549 44.475 136.489 44.9395 138.454 44.9243C140.169 44.9243 141.534 44.6412 142.549 44.0751C143.563 43.509 144.014 42.5426 143.899 41.1758L143.838 40.4755C143.825 40.3299 143.769 40.1913 143.679 40.0766C143.588 39.9618 143.467 39.8759 143.328 39.8293C142.954 39.6991 142.559 39.6394 142.164 39.6534H141.03C140.692 39.6534 140.354 39.6534 139.953 39.623C139.57 39.6086 139.189 39.5599 138.815 39.4775C138.49 39.4177 138.177 39.3034 137.89 39.1392C137.778 39.0866 137.683 39.0042 137.614 38.901C137.546 38.7978 137.507 38.6777 137.502 38.5539C137.5 38.4426 137.523 38.3322 137.569 38.2309C137.615 38.1296 137.683 38.04 137.769 37.9686C137.969 37.8019 138.198 37.6735 138.444 37.5897C138.716 37.494 138.996 37.4249 139.281 37.3833C139.519 37.3486 139.759 37.3293 140 37.3258C140.555 37.3205 141.107 37.3887 141.644 37.5288C142.14 37.6675 142.488 37.7758 142.69 37.8671C142.801 37.9019 142.902 37.9608 142.987 38.0397C143.097 38.1344 143.232 38.1955 143.376 38.2156C143.623 38.2678 143.873 38.3073 144.125 38.334C144.581 38.3799 145.04 38.3991 145.499 38.3915H148.219C149.394 38.3915 150.582 38.3915 151.804 38.3645C153.026 38.3374 154.116 38.334 155.092 38.334H156.797C157.364 38.3002 157.644 38.3983 157.644 38.5945ZM133.141 22.4875C133.144 19.9024 132.893 17.3233 132.392 14.7876C131.953 12.4488 131.22 10.1752 130.211 8.02135C129.373 6.18891 128.173 4.54555 126.684 3.19027C125.396 2.00079 123.709 1.34227 121.958 1.34648C121.237 1.334 120.536 1.58267 119.983 2.04678C119.373 2.59145 118.902 3.27475 118.609 4.03944C118.221 5.00832 117.95 6.02031 117.803 7.05379C117.615 8.32379 117.524 9.60637 117.533 10.8902C117.551 13.2862 117.772 15.6764 118.191 18.0354C118.641 20.6553 119.28 23.2389 120.105 25.7658C120.932 28.3173 121.972 30.7946 123.214 33.1714C124.375 35.4276 125.821 37.5244 127.517 39.4098C128.511 38.5021 129.358 37.4453 130.029 36.2771C130.766 34.9942 131.357 33.6324 131.791 32.2173C132.262 30.6888 132.601 29.1222 132.803 27.5351C133.026 25.8618 133.139 24.1756 133.141 22.4875Z" fill="white"/>
<path d="M185.799 40.9931C184.95 41.693 184.017 42.284 183.021 42.7523C181.932 43.2716 180.804 43.7015 179.646 44.0379C178.458 44.3903 177.249 44.6671 176.027 44.8668C174.871 45.0552 173.701 45.1525 172.53 45.1577C171.809 45.1576 171.092 45.0434 170.407 44.8194C169.812 44.6301 169.245 44.3639 168.719 44.0278C168.179 43.689 167.661 43.3172 167.166 42.9147C166.733 43.6164 166.125 44.1925 165.401 44.586C164.762 44.9134 164.056 45.0839 163.338 45.0833C162.643 45.0773 161.956 44.9384 161.313 44.6739C160.655 44.4118 160.048 44.035 159.521 43.5609C159 43.0901 158.574 42.524 158.265 41.893C157.946 41.2461 157.782 40.5338 157.786 39.8124C157.773 38.8724 158.115 37.9623 158.744 37.2649C159.379 36.5443 160.338 36.1823 161.614 36.1823C162.81 36.2639 163.959 36.68 164.932 37.3833C165.749 38.0261 166.157 38.6622 166.157 39.2846C166.157 39.6365 165.958 39.8124 165.559 39.8124C165.414 39.8094 165.272 39.7738 165.142 39.7082C165.012 39.6426 164.899 39.5488 164.81 39.4335C164.591 39.1798 164.334 38.9057 164.034 38.6114C163.678 38.2813 163.275 38.0054 162.839 37.7927C162.204 37.5138 161.513 37.3875 160.82 37.4239C160.061 37.4239 159.534 37.5423 159.234 37.7622C159.09 37.8735 158.976 38.0176 158.899 38.1824C158.823 38.3472 158.787 38.528 158.795 38.7095C158.834 39.2981 159.031 39.8651 159.365 40.3503C159.756 40.9936 160.228 41.5838 160.77 42.1062C161.301 42.633 161.892 43.0952 162.532 43.4831C163.02 43.812 163.588 44.0036 164.176 44.0379C164.429 44.061 164.684 44.0258 164.921 43.9349C165.159 43.844 165.373 43.6999 165.546 43.5135C165.82 43.1665 166.041 42.7812 166.204 42.37C166.36 41.9607 166.491 41.5784 166.592 41.2299C166.694 40.8815 166.879 40.7022 167.16 40.7022C167.538 40.7272 167.895 40.8826 168.172 41.142C168.622 41.4983 169.091 41.8303 169.576 42.1366C170.269 42.5592 171.012 42.8934 171.787 43.1312C172.904 43.4549 174.065 43.6033 175.227 43.571C176.005 43.5654 176.783 43.5169 177.556 43.4256C178.465 43.3237 179.367 43.1666 180.257 42.9553C181.186 42.7381 182.096 42.4439 182.977 42.0757C183.866 41.713 184.7 41.2304 185.458 40.6413L185.799 40.9931Z" fill="white"/>
<path d="M207.74 40.9931C206.89 41.6922 205.957 42.2831 204.962 42.7523C203.873 43.271 202.744 43.7009 201.586 44.0379C200.393 44.3908 199.179 44.6677 197.951 44.8668C196.795 45.0553 195.625 45.1526 194.454 45.1577C193.978 45.1577 193.441 45.1374 192.871 45.1002C192.316 45.0634 191.766 44.975 191.227 44.8363C190.76 44.7243 190.321 44.5144 189.941 44.2206C189.771 44.0789 189.637 43.8991 189.549 43.6958C189.461 43.4924 189.422 43.2713 189.435 43.05C189.412 42.66 189.532 42.275 189.772 41.9674C189.979 41.7239 190.233 41.5248 190.518 41.3822C190.798 41.2434 191.048 41.1284 191.268 41.0438C191.487 40.9593 191.605 40.8206 191.605 40.6616C191.612 40.619 191.61 40.5754 191.598 40.5339C191.586 40.4925 191.565 40.4542 191.537 40.4218C191.508 40.3894 191.473 40.3638 191.433 40.3467C191.394 40.3297 191.351 40.3217 191.308 40.3232C191.109 40.3041 190.91 40.2951 190.711 40.2962C189.635 40.2962 188.687 40.2668 187.868 40.2082C187.187 40.1753 186.513 40.0466 185.867 39.8259C185.383 39.6566 184.972 39.3258 184.702 38.8888C184.422 38.3708 184.288 37.786 184.314 37.1973C184.3 36.8542 184.365 36.5126 184.506 36.1996C184.647 35.8865 184.858 35.6107 185.124 35.3941C185.669 34.9421 186.358 34.7019 187.065 34.7174C187.807 34.7034 188.539 34.8854 189.188 35.2452C189.807 35.597 190.115 35.9872 190.113 36.4158C190.115 36.4828 190.099 36.5492 190.068 36.6085C190.037 36.6678 189.991 36.7179 189.934 36.7541C189.829 36.8284 189.705 36.8696 189.576 36.8725C189.269 36.8482 188.977 36.7301 188.739 36.5342C188.348 36.3347 187.938 36.1771 187.514 36.0639C187.23 35.9936 186.939 35.955 186.646 35.9489C186.268 35.9292 185.89 35.9987 185.543 36.1519C185.283 36.2906 185.094 36.6323 184.972 37.1668C184.971 37.2986 184.997 37.4291 185.049 37.5503C185.1 37.6714 185.177 37.7805 185.273 37.8705C185.479 38.071 185.722 38.2295 185.988 38.3374C186.25 38.4497 186.521 38.538 186.798 38.6012C187.004 38.6524 187.214 38.6819 187.426 38.6892C187.922 38.7365 188.42 38.7557 188.918 38.7467C189.595 38.7475 190.271 38.7871 190.943 38.8651C191.349 38.8916 191.737 39.0455 192.051 39.3049C192.185 39.4032 192.295 39.5306 192.373 39.6777C192.45 39.8248 192.494 39.9877 192.5 40.1541C192.494 40.2794 192.46 40.4019 192.402 40.513C192.344 40.624 192.262 40.7209 192.162 40.7969C191.943 40.9913 191.702 41.1584 191.443 41.2942C191.183 41.4329 190.943 41.5682 190.724 41.7069C190.628 41.7511 190.546 41.8209 190.486 41.9085C190.427 41.9961 190.392 42.0984 190.386 42.2042C190.386 42.5155 190.636 42.7591 191.132 42.935C191.716 43.1316 192.317 43.2687 192.928 43.3444C193.661 43.4465 194.399 43.5053 195.139 43.5203C195.916 43.5406 196.583 43.5507 197.141 43.5507C197.92 43.5451 198.699 43.4966 199.473 43.4052C200.382 43.3031 201.284 43.146 202.174 42.935C203.103 42.7173 204.013 42.4231 204.895 42.0554C205.782 41.692 206.617 41.2094 207.376 40.621L207.74 40.9931Z" fill="white"/>
<path d="M215.811 40.7022C215.805 41.2146 215.745 41.7249 215.632 42.2246C215.514 42.7604 215.312 43.2742 215.035 43.747C214.766 44.2011 214.424 44.607 214.022 44.948C213.6 45.2878 213.071 45.4643 212.53 45.4453C211.056 45.4453 209.86 45.0935 208.942 44.3898C208.078 43.7479 207.348 42.9435 206.792 42.0216C206.319 41.2544 205.977 40.4142 205.779 39.535C205.671 39.0713 205.592 38.6013 205.543 38.1276C205.543 37.7893 205.681 37.5999 205.961 37.5999C206.035 37.5985 206.108 37.6135 206.175 37.644C206.242 37.6744 206.302 37.7194 206.349 37.7758C206.454 37.9016 206.543 38.0389 206.616 38.1851C206.75 38.3762 206.833 38.5988 206.856 38.8313C206.977 39.1053 207.193 39.5079 207.484 40.0323C207.815 40.5998 208.206 41.1295 208.652 41.6122C209.128 42.1442 209.682 42.6005 210.295 42.9655C210.898 43.3343 211.591 43.5276 212.297 43.5237C212.585 43.5408 212.873 43.5003 213.145 43.4044C213.417 43.3086 213.667 43.1593 213.88 42.9655C214.25 42.6079 214.545 42.1801 214.748 41.7069C214.954 41.1219 215.074 40.5099 215.106 39.8902C215.106 39.6974 215.166 39.5993 215.284 39.5993C215.388 39.587 215.493 39.607 215.585 39.6568L215.703 39.7752C215.778 40.0784 215.814 40.3898 215.811 40.7022ZM224 37.5965C224 37.7149 223.72 37.8604 223.163 38.0363C222.466 38.2453 221.757 38.4114 221.04 38.5336C220.182 38.6937 219.236 38.8302 218.201 38.943C217.209 39.0582 216.212 39.1169 215.214 39.1189C214.104 39.1411 212.996 39.0032 211.926 38.7095C211.008 38.4389 210.549 37.9686 210.549 37.3055C210.549 36.5252 210.907 36.135 211.625 36.135C211.869 36.1407 212.105 36.2223 212.3 36.3684C212.583 36.5609 212.882 36.7273 213.195 36.8657C213.716 37.0864 214.257 37.253 214.812 37.363C215.747 37.54 216.699 37.6182 217.651 37.5965C218.846 37.5965 219.75 37.5965 220.371 37.539C220.852 37.5149 221.33 37.4664 221.806 37.3935C222.143 37.3326 222.403 37.2852 222.582 37.2446C222.829 37.2013 223.078 37.182 223.328 37.1871C223.781 37.1871 224 37.3258 224 37.5965Z" fill="white"/>
</g>
<path d="M171.74 54.7119V57.4541H171.45C171.228 56.5928 170.94 56.0068 170.589 55.6963C170.243 55.3857 169.801 55.2305 169.262 55.2305C168.852 55.2305 168.521 55.3389 168.269 55.5557C168.017 55.7725 167.891 56.0127 167.891 56.2764C167.891 56.6045 167.984 56.8857 168.172 57.1201C168.354 57.3604 168.723 57.6152 169.279 57.8848L170.562 58.5088C171.752 59.0889 172.347 59.8535 172.347 60.8027C172.347 61.5352 172.068 62.127 171.512 62.5781C170.961 63.0234 170.343 63.2461 169.657 63.2461C169.165 63.2461 168.603 63.1582 167.97 62.9824C167.776 62.9238 167.618 62.8945 167.495 62.8945C167.36 62.8945 167.255 62.9707 167.179 63.123H166.889V60.249H167.179C167.343 61.0693 167.656 61.6875 168.119 62.1035C168.582 62.5195 169.101 62.7275 169.675 62.7275C170.079 62.7275 170.407 62.6104 170.659 62.376C170.917 62.1357 171.046 61.8486 171.046 61.5146C171.046 61.1104 170.902 60.7705 170.615 60.4951C170.334 60.2197 169.769 59.8711 168.919 59.4492C168.069 59.0273 167.513 58.6465 167.249 58.3066C166.985 57.9727 166.854 57.5508 166.854 57.041C166.854 56.3789 167.079 55.8252 167.53 55.3799C167.987 54.9346 168.576 54.7119 169.297 54.7119C169.613 54.7119 169.997 54.7793 170.448 54.9141C170.747 55.002 170.946 55.0459 171.046 55.0459C171.14 55.0459 171.213 55.0254 171.266 54.9844C171.318 54.9434 171.38 54.8525 171.45 54.7119H171.74ZM174.904 57.9814C174.898 59.1768 175.188 60.1143 175.774 60.7939C176.36 61.4736 177.049 61.8135 177.84 61.8135C178.367 61.8135 178.824 61.6699 179.211 61.3828C179.604 61.0898 179.932 60.5918 180.195 59.8887L180.468 60.0645C180.345 60.8672 179.987 61.5996 179.396 62.2617C178.804 62.918 178.062 63.2461 177.172 63.2461C176.205 63.2461 175.376 62.8711 174.685 62.1211C173.999 61.3652 173.656 60.3516 173.656 59.0801C173.656 57.7031 174.008 56.6309 174.711 55.8633C175.42 55.0898 176.308 54.7031 177.374 54.7031C178.276 54.7031 179.018 55.002 179.598 55.5996C180.178 56.1914 180.468 56.9854 180.468 57.9814H174.904ZM174.904 57.4717H178.631C178.602 56.9561 178.54 56.5928 178.446 56.3818C178.3 56.0537 178.08 55.7959 177.787 55.6084C177.5 55.4209 177.198 55.3271 176.882 55.3271C176.396 55.3271 175.959 55.5176 175.572 55.8984C175.191 56.2734 174.969 56.7979 174.904 57.4717ZM183.904 54.7119V56.5225C184.578 55.3154 185.27 54.7119 185.979 54.7119C186.301 54.7119 186.567 54.8115 186.778 55.0107C186.989 55.2041 187.095 55.4297 187.095 55.6875C187.095 55.916 187.019 56.1094 186.866 56.2676C186.714 56.4258 186.532 56.5049 186.321 56.5049C186.116 56.5049 185.885 56.4053 185.627 56.2061C185.375 56.001 185.188 55.8984 185.064 55.8984C184.959 55.8984 184.845 55.957 184.722 56.0742C184.458 56.3145 184.186 56.71 183.904 57.2607V61.1191C183.904 61.5645 183.96 61.9014 184.071 62.1299C184.147 62.2881 184.282 62.4199 184.476 62.5254C184.669 62.6309 184.947 62.6836 185.311 62.6836V63H181.188V62.6836C181.599 62.6836 181.903 62.6191 182.103 62.4902C182.249 62.3965 182.352 62.2471 182.41 62.042C182.439 61.9424 182.454 61.6582 182.454 61.1895V58.0693C182.454 57.1318 182.434 56.5752 182.393 56.3994C182.357 56.2178 182.287 56.0859 182.182 56.0039C182.082 55.9219 181.956 55.8809 181.804 55.8809C181.622 55.8809 181.417 55.9248 181.188 56.0127L181.101 55.6963L183.535 54.7119H183.904ZM187.13 54.9492H190.918V55.2744H190.672C190.443 55.2744 190.268 55.3301 190.145 55.4414C190.027 55.5527 189.969 55.7021 189.969 55.8896C189.969 56.0947 190.03 56.3379 190.153 56.6191L192.025 61.0664L193.906 56.4521C194.041 56.124 194.108 55.875 194.108 55.7051C194.108 55.623 194.085 55.5557 194.038 55.5029C193.974 55.415 193.892 55.3564 193.792 55.3271C193.692 55.292 193.49 55.2744 193.186 55.2744V54.9492H195.813V55.2744C195.509 55.2979 195.298 55.3594 195.181 55.459C194.976 55.6348 194.791 55.9277 194.627 56.3379L191.771 63.2461H191.41L188.536 56.4521C188.407 56.1357 188.284 55.9102 188.167 55.7754C188.05 55.6348 187.9 55.5176 187.719 55.4238C187.619 55.3711 187.423 55.3213 187.13 55.2744V54.9492ZM198.591 50.502C198.837 50.502 199.045 50.5898 199.215 50.7656C199.391 50.9355 199.479 51.1436 199.479 51.3896C199.479 51.6357 199.391 51.8467 199.215 52.0225C199.045 52.1982 198.837 52.2861 198.591 52.2861C198.345 52.2861 198.134 52.1982 197.958 52.0225C197.782 51.8467 197.694 51.6357 197.694 51.3896C197.694 51.1436 197.779 50.9355 197.949 50.7656C198.125 50.5898 198.339 50.502 198.591 50.502ZM199.32 54.7119V61.1807C199.32 61.6846 199.355 62.0215 199.426 62.1914C199.502 62.3555 199.61 62.4785 199.751 62.5605C199.897 62.6426 200.161 62.6836 200.542 62.6836V63H196.631V62.6836C197.023 62.6836 197.287 62.6455 197.422 62.5693C197.557 62.4932 197.662 62.3672 197.738 62.1914C197.82 62.0156 197.861 61.6787 197.861 61.1807V58.0781C197.861 57.2051 197.835 56.6396 197.782 56.3818C197.741 56.1943 197.677 56.0654 197.589 55.9951C197.501 55.9189 197.381 55.8809 197.229 55.8809C197.064 55.8809 196.865 55.9248 196.631 56.0127L196.508 55.6963L198.934 54.7119H199.32ZM208.391 59.9414C208.174 61.002 207.749 61.8193 207.116 62.3936C206.483 62.9619 205.783 63.2461 205.016 63.2461C204.102 63.2461 203.305 62.8623 202.625 62.0947C201.945 61.3271 201.605 60.29 201.605 58.9834C201.605 57.7178 201.98 56.6895 202.73 55.8984C203.486 55.1074 204.392 54.7119 205.446 54.7119C206.237 54.7119 206.888 54.9229 207.397 55.3447C207.907 55.7607 208.162 56.1943 208.162 56.6455C208.162 56.8682 208.089 57.0498 207.942 57.1904C207.802 57.3252 207.603 57.3926 207.345 57.3926C206.999 57.3926 206.738 57.2812 206.562 57.0586C206.463 56.9355 206.396 56.7012 206.36 56.3555C206.331 56.0098 206.214 55.7461 206.009 55.5645C205.804 55.3887 205.52 55.3008 205.156 55.3008C204.57 55.3008 204.099 55.5176 203.741 55.9512C203.267 56.5254 203.029 57.2842 203.029 58.2275C203.029 59.1885 203.264 60.0381 203.732 60.7764C204.207 61.5088 204.846 61.875 205.648 61.875C206.223 61.875 206.738 61.6787 207.195 61.2861C207.518 61.0166 207.831 60.5273 208.136 59.8184L208.391 59.9414ZM210.904 57.9814C210.898 59.1768 211.188 60.1143 211.774 60.7939C212.36 61.4736 213.049 61.8135 213.84 61.8135C214.367 61.8135 214.824 61.6699 215.211 61.3828C215.604 61.0898 215.932 60.5918 216.195 59.8887L216.468 60.0645C216.345 60.8672 215.987 61.5996 215.396 62.2617C214.804 62.918 214.062 63.2461 213.172 63.2461C212.205 63.2461 211.376 62.8711 210.685 62.1211C209.999 61.3652 209.656 60.3516 209.656 59.0801C209.656 57.7031 210.008 56.6309 210.711 55.8633C211.42 55.0898 212.308 54.7031 213.374 54.7031C214.276 54.7031 215.018 55.002 215.598 55.5996C216.178 56.1914 216.468 56.9854 216.468 57.9814H210.904ZM210.904 57.4717H214.631C214.602 56.9561 214.54 56.5928 214.446 56.3818C214.3 56.0537 214.08 55.7959 213.787 55.6084C213.5 55.4209 213.198 55.3271 212.882 55.3271C212.396 55.3271 211.959 55.5176 211.572 55.8984C211.191 56.2734 210.969 56.7979 210.904 57.4717ZM222.752 54.7119V57.4541H222.462C222.239 56.5928 221.952 56.0068 221.601 55.6963C221.255 55.3857 220.812 55.2305 220.273 55.2305C219.863 55.2305 219.532 55.3389 219.28 55.5557C219.028 55.7725 218.902 56.0127 218.902 56.2764C218.902 56.6045 218.996 56.8857 219.184 57.1201C219.365 57.3604 219.734 57.6152 220.291 57.8848L221.574 58.5088C222.764 59.0889 223.358 59.8535 223.358 60.8027C223.358 61.5352 223.08 62.127 222.523 62.5781C221.973 63.0234 221.354 63.2461 220.669 63.2461C220.177 63.2461 219.614 63.1582 218.981 62.9824C218.788 62.9238 218.63 62.8945 218.507 62.8945C218.372 62.8945 218.267 62.9707 218.19 63.123H217.9V60.249H218.19C218.354 61.0693 218.668 61.6875 219.131 62.1035C219.594 62.5195 220.112 62.7275 220.687 62.7275C221.091 62.7275 221.419 62.6104 221.671 62.376C221.929 62.1357 222.058 61.8486 222.058 61.5146C222.058 61.1104 221.914 60.7705 221.627 60.4951C221.346 60.2197 220.78 59.8711 219.931 59.4492C219.081 59.0273 218.524 58.6465 218.261 58.3066C217.997 57.9727 217.865 57.5508 217.865 57.041C217.865 56.3789 218.091 55.8252 218.542 55.3799C218.999 54.9346 219.588 54.7119 220.309 54.7119C220.625 54.7119 221.009 54.7793 221.46 54.9141C221.759 55.002 221.958 55.0459 222.058 55.0459C222.151 55.0459 222.225 55.0254 222.277 54.9844C222.33 54.9434 222.392 54.8525 222.462 54.7119H222.752Z" fill="#606060"/>
<defs>
<clipPath id="clip0_4_40">
<rect width="224" height="58" fill="white"/>
</clipPath>
</defs>
</svg>
